<svg width="18" height="18" viewBox="0 0 18 18" fill="none" xmlns="http://www.w3.org/2000/svg">
<path d="M1.66504 1.66499C1.56978 1.76023 1.51186 1.8865 1.50181 2.02083C1.49176 2.15516 1.53026 2.28864 1.61029 2.39699L1.66504 2.45999L4.69054 5.48624C3.21532 6.52021 2.16221 8.05128 1.72429 9.79874C1.69053 9.9426 1.71472 10.094 1.79165 10.2201C1.86857 10.3463 1.99205 10.4371 2.1354 10.473C2.27874 10.5088 2.43044 10.4868 2.55771 10.4118C2.68498 10.3367 2.77759 10.2145 2.81554 10.0717C3.20472 8.52074 4.16322 7.17295 5.50054 6.29624L6.85804 7.65374C6.31579 8.22036 6.01699 8.9768 6.02564 9.76104C6.03429 10.5453 6.3497 11.2949 6.90432 11.8495C7.45894 12.404 8.20866 12.7193 8.9929 12.7278C9.77713 12.7363 10.5335 12.4373 11.1 11.895L15.5393 16.335C15.6397 16.4356 15.7744 16.4946 15.9164 16.4999C16.0585 16.5052 16.1973 16.4566 16.3049 16.3638C16.4126 16.271 16.4811 16.1408 16.4967 15.9995C16.5123 15.8583 16.4738 15.7163 16.389 15.6022L16.3343 15.5392L11.7495 10.9537L11.7503 10.9522L10.8503 10.0537L8.69779 7.90124H8.69929L6.53929 5.74349L6.54004 5.74199L5.69029 4.89449L2.46004 1.66499C2.35457 1.55966 2.21161 1.50049 2.06254 1.50049C1.91348 1.50049 1.77051 1.55966 1.66504 1.66499V1.66499ZM7.65304 8.44874L10.3043 11.1007C9.95066 11.4423 9.47704 11.6313 8.98542 11.627C8.4938 11.6227 8.02352 11.4255 7.67588 11.0779C7.32824 10.7303 7.13105 10.26 7.12678 9.76837C7.12251 9.27675 7.3115 8.80312 7.65304 8.44949V8.44874ZM9.00004 4.12499C8.25004 4.12499 7.52254 4.23599 6.83329 4.44374L7.76104 5.37074C9.36571 5.05301 11.0311 5.36406 12.4129 6.23956C13.7947 7.11507 14.7872 8.48809 15.1853 10.0747C15.2242 10.2164 15.3169 10.3373 15.4437 10.4115C15.5706 10.4857 15.7214 10.5073 15.8639 10.4718C16.0065 10.4362 16.1295 10.3463 16.2066 10.2212C16.2837 10.0961 16.3088 9.94584 16.2765 9.80249C15.8698 8.18059 14.9329 6.74104 13.6146 5.71242C12.2963 4.68381 10.6722 4.12509 9.00004 4.12499V4.12499ZM9.14629 6.75749L11.997 9.60749C11.9602 8.86342 11.648 8.15963 11.1211 7.63291C10.5942 7.10619 9.89038 6.79417 9.14629 6.75749V6.75749Z" fill="#999999"/>
</svg>
