<svg width="18" height="18" viewBox="0 0 18 18" fill="none" xmlns="http://www.w3.org/2000/svg">
<path d="M3.35699 9.70312V9.7065C3.33805 9.77795 3.3052 9.84497 3.26034 9.90372C3.21547 9.96247 3.15947 10.0118 3.09552 10.0489C3.03158 10.086 2.96095 10.1101 2.88768 10.1199C2.81441 10.1297 2.73992 10.1249 2.66849 10.1059C2.18362 9.97762 2.26912 9.4185 2.26912 9.4185L2.28824 9.34875C2.28824 9.34875 2.31749 9.25425 2.34112 9.18563C2.62982 8.37617 3.05482 7.62205 3.59774 6.95588C4.60912 5.72513 6.30674 4.5 8.99999 4.5C11.6944 4.5 13.392 5.72513 14.4011 6.95588C14.944 7.62205 15.369 8.37617 15.6577 9.18563C15.682 9.25517 15.7045 9.32532 15.7252 9.396L15.7286 9.41062L15.7309 9.41513V9.41738C15.7665 9.56055 15.7445 9.71201 15.6696 9.83912C15.5947 9.96622 15.4728 10.0588 15.3302 10.0969C15.1876 10.1349 15.0358 10.1155 14.9075 10.0427C14.7792 9.96985 14.6846 9.84952 14.6441 9.70762L14.643 9.70312L14.634 9.675C14.5701 9.47589 14.495 9.28057 14.409 9.09C14.1796 8.58017 13.8846 8.1025 13.5315 7.66912C12.6956 6.651 11.2995 5.625 8.99999 5.625C6.70049 5.625 5.30324 6.651 4.46849 7.66912C4.01007 8.23217 3.65059 8.86897 3.40537 9.55238C3.39147 9.593 3.37834 9.63388 3.36599 9.675L3.35699 9.70312Z" fill="#999999"/>
<path d="M9 7.875C8.25408 7.875 7.53871 8.17132 7.01126 8.69876C6.48382 9.22621 6.1875 9.94158 6.1875 10.6875C6.1875 11.4334 6.48382 12.1488 7.01126 12.6762C7.53871 13.2037 8.25408 13.5 9 13.5C9.74592 13.5 10.4613 13.2037 10.9887 12.6762C11.5162 12.1488 11.8125 11.4334 11.8125 10.6875C11.8125 9.94158 11.5162 9.22621 10.9887 8.69876C10.4613 8.17132 9.74592 7.875 9 7.875ZM7.3125 10.6875C7.3125 10.2399 7.49029 9.81072 7.80676 9.49426C8.12322 9.17779 8.55245 9 9 9C9.44755 9 9.87678 9.17779 10.1932 9.49426C10.5097 9.81072 10.6875 10.2399 10.6875 10.6875C10.6875 11.1351 10.5097 11.5643 10.1932 11.8807C9.87678 12.1972 9.44755 12.375 9 12.375C8.55245 12.375 8.12322 12.1972 7.80676 11.8807C7.49029 11.5643 7.3125 11.1351 7.3125 10.6875Z" fill="#999999"/>
</svg>
