<svg width="27" height="26" viewBox="0 0 27 26" fill="none" xmlns="http://www.w3.org/2000/svg">
<path fill-rule="evenodd" clip-rule="evenodd" d="M8.81436 1.0715C10.0851 1.013 10.4903 1 13.7273 1C16.9643 1 17.3694 1.01408 18.6391 1.0715C19.9088 1.12892 20.7754 1.3315 21.5338 1.62508C22.3279 1.92517 23.0483 2.39425 23.6441 3.00092C24.2508 3.59567 24.7188 4.315 25.0178 5.11017C25.3124 5.8685 25.5139 6.73517 25.5724 8.00267C25.6309 9.27558 25.6439 9.68075 25.6439 12.9167C25.6439 16.1537 25.6299 16.5588 25.5724 17.8296C25.515 19.0971 25.3124 19.9638 25.0178 20.7221C24.7188 21.5174 24.25 22.2379 23.6441 22.8335C23.0483 23.4402 22.3279 23.9082 21.5338 24.2072C20.7754 24.5018 19.9088 24.7033 18.6413 24.7618C17.3694 24.8203 16.9643 24.8333 13.7273 24.8333C10.4903 24.8333 10.0851 24.8193 8.81436 24.7618C7.54686 24.7044 6.68019 24.5018 5.92186 24.2072C5.12661 23.9081 4.40608 23.4394 3.81044 22.8335C3.20419 22.2384 2.73503 21.5182 2.43569 20.7232C2.14211 19.9648 1.94061 19.0982 1.88211 17.8307C1.82361 16.5577 1.81061 16.1526 1.81061 12.9167C1.81061 9.67967 1.82469 9.2745 1.88211 8.00483C1.93952 6.73517 2.14211 5.8685 2.43569 5.11017C2.73547 4.31509 3.20499 3.59492 3.81152 2.99983C4.40632 2.39371 5.12612 1.92456 5.92077 1.62508C6.67911 1.3315 7.54577 1.13 8.81327 1.0715H8.81436ZM18.5427 3.2165C17.286 3.15908 16.909 3.14717 13.7273 3.14717C10.5455 3.14717 10.1685 3.15908 8.91186 3.2165C7.74944 3.26958 7.11894 3.4635 6.69861 3.62708C6.14286 3.84375 5.74528 4.1005 5.32819 4.51758C4.93282 4.90222 4.62855 5.37047 4.43769 5.888C4.27411 6.30833 4.08019 6.93883 4.02711 8.10125C3.96969 9.35792 3.95777 9.73492 3.95777 12.9167C3.95777 16.0984 3.96969 16.4754 4.02711 17.7321C4.08019 18.8945 4.27411 19.525 4.43769 19.9453C4.62836 20.4621 4.93278 20.9312 5.32819 21.3158C5.71277 21.7112 6.18186 22.0156 6.69861 22.2063C7.11894 22.3698 7.74944 22.5638 8.91186 22.6168C10.1685 22.6743 10.5444 22.6862 13.7273 22.6862C16.9101 22.6862 17.286 22.6743 18.5427 22.6168C19.7051 22.5638 20.3356 22.3698 20.7559 22.2063C21.3117 21.9896 21.7093 21.7328 22.1264 21.3158C22.5218 20.9312 22.8262 20.4621 23.0169 19.9453C23.1804 19.525 23.3744 18.8945 23.4274 17.7321C23.4849 16.4754 23.4968 16.0984 23.4968 12.9167C23.4968 9.73492 23.4849 9.35792 23.4274 8.10125C23.3744 6.93883 23.1804 6.30833 23.0169 5.888C22.8002 5.33225 22.5434 4.93467 22.1264 4.51758C21.7417 4.12224 21.2735 3.81798 20.7559 3.62708C20.3356 3.4635 19.7051 3.26958 18.5427 3.2165ZM12.2052 16.5903C13.0552 16.9441 14.0018 16.9919 14.8831 16.7254C15.7645 16.4589 16.5259 15.8947 17.0375 15.1291C17.5491 14.3635 17.779 13.4441 17.688 12.5279C17.597 11.6116 17.1907 10.7554 16.5385 10.1054C16.1228 9.68993 15.6201 9.3718 15.0666 9.17391C14.5132 8.97602 13.9227 8.90331 13.3378 8.961C12.7529 9.01869 12.188 9.20536 11.6839 9.50756C11.1798 9.80976 10.7489 10.22 10.4224 10.7087C10.0958 11.1974 9.88165 11.7524 9.79533 12.3338C9.70902 12.9152 9.75269 13.5085 9.92319 14.071C10.0937 14.6335 10.3868 15.1512 10.7814 15.5868C11.176 16.0224 11.6623 16.3651 12.2052 16.5903ZM9.39611 8.5855C9.96488 8.01672 10.6401 7.56555 11.3833 7.25773C12.1264 6.94991 12.9229 6.79147 13.7273 6.79147C14.5316 6.79147 15.3281 6.9499 16.0713 7.25772C16.8144 7.56554 17.4897 8.01672 18.0584 8.5855C18.6272 9.15428 19.0784 9.82951 19.3862 10.5727C19.694 11.3158 19.8525 12.1123 19.8525 12.9167C19.8525 13.721 19.694 14.5175 19.3862 15.2607C19.0784 16.0038 18.6272 16.6791 18.0584 17.2478C16.9097 18.3965 15.3518 19.0419 13.7273 19.0419C12.1028 19.0419 10.5448 18.3965 9.39611 17.2478C8.24741 16.0991 7.60208 14.5412 7.60208 12.9167C7.60208 11.2922 8.24741 9.7342 9.39611 8.5855ZM21.2109 7.70367C21.3519 7.57071 21.4647 7.41082 21.5428 7.23347C21.6208 7.05612 21.6625 6.86492 21.6653 6.67117C21.6681 6.47743 21.6321 6.28509 21.5592 6.10554C21.4864 5.926 21.3782 5.76289 21.2412 5.62588C21.1042 5.48886 20.9411 5.38074 20.7616 5.30789C20.582 5.23505 20.3897 5.19897 20.1959 5.2018C20.0022 5.20462 19.811 5.24629 19.6336 5.32434C19.4563 5.40238 19.2964 5.51522 19.1634 5.65617C18.9049 5.93028 18.7633 6.29438 18.7688 6.67117C18.7743 7.04797 18.9264 7.40779 19.1929 7.67425C19.4593 7.94071 19.8191 8.09283 20.1959 8.09832C20.5727 8.10382 20.9368 7.96225 21.2109 7.70367Z" fill="#0080FF"/>
</svg>
