<svg width="23" height="22" viewBox="0 0 23 22" fill="none" xmlns="http://www.w3.org/2000/svg">
<path d="M6.31315 20V7.85543H2.2403V20H6.31315ZM4.27725 6.1963C5.69752 6.1963 6.58158 5.26374 6.58158 4.09835C6.55512 2.90668 5.69758 2 4.3042 2C2.91104 2 2 2.9067 2 4.09835C2 5.26379 2.88384 6.1963 4.25066 6.1963H4.27712H4.27725ZM8.56746 20H12.6403V13.2179C12.6403 12.8549 12.6668 12.4923 12.7743 12.2328C13.0688 11.5076 13.7389 10.7565 14.864 10.7565C16.3378 10.7565 16.9274 11.8702 16.9274 13.5028V19.9999H21V13.0363C21 9.30599 18.9907 7.57031 16.311 7.57031C14.1138 7.57031 13.1491 8.78751 12.6132 9.61653H12.6404V7.85518H8.56755C8.621 8.99476 8.56755 19.9997 8.56755 19.9997L8.56746 20Z" fill="#0080FF"/>
</svg>
