<?xml version="1.0" encoding="utf-8"?>
<!-- Generator: Adobe Illustrator 25.2.3, SVG Export Plug-In . SVG Version: 6.00 Build 0)  -->
<svg version="1.1" id="Camada_1" xmlns="http://www.w3.org/2000/svg" xmlns:xlink="http://www.w3.org/1999/xlink" x="0px" y="0px"
	 viewBox="0 0 270 55.7" style="enable-background:new 0 0 270 55.7;" xml:space="preserve">
<style type="text/css">
	.st0{fill:#0080FF;}
	.st1{fill:#133660;}
</style>
<g>
	<g>
		<path class="st0" d="M0,32.9l0-10.2c0.1,0,6.1-0.1,11.9-3.1C19.2,15.9,22.7,9.5,22.7,0h10.2c0,17-9.1,25.1-16.7,28.9
			C8.3,32.9,0.4,32.9,0,32.9z"/>
		<path class="st0" d="M32.9,55.7H22.7c0-32.5,32.5-32.9,32.9-32.9l0,10.2c-0.1,0-6.1,0.1-11.9,3.1C36.4,39.8,32.9,46.2,32.9,55.7z"
			/>
	</g>
	<g>
		<path class="st1" d="M104.8,28.8c-1.6,2.9-3.8,5.1-6.6,6.8c-2.8,1.6-6,2.4-9.6,2.4c-3.6,0-6.8-0.8-9.6-2.4c-2.8-1.6-5-3.9-6.6-6.8
			C70.8,26,70,22.7,70,19.1c0-3.6,0.8-6.9,2.4-9.8c1.6-2.9,3.8-5.1,6.6-6.8c2.8-1.6,6-2.4,9.6-2.4c3.6,0,6.8,0.8,9.6,2.4
			c2.8,1.6,5,3.9,6.6,6.8c1.6,2.9,2.4,6.2,2.4,9.8C107.2,22.7,106.4,26,104.8,28.8z M78,26.1c1,2.1,2.5,3.7,4.3,4.8
			c1.8,1.2,3.9,1.7,6.3,1.7c2.4,0,4.5-0.6,6.3-1.7c1.8-1.2,3.3-2.8,4.3-4.8c1-2.1,1.5-4.4,1.5-7c0-2.6-0.5-5-1.5-7
			c-1-2.1-2.5-3.7-4.3-4.8c-1.8-1.2-3.9-1.7-6.3-1.7c-2.4,0-4.5,0.6-6.3,1.7C80.4,8.4,79,10,78,12.1s-1.5,4.4-1.5,7
			C76.4,21.7,77,24,78,26.1z"/>
		<path class="st1" d="M154.5,13c1.9,1.9,2.9,5.1,2.9,9.3v15.4h-5.9V22.4c0-2.4-0.5-4.2-1.5-5.4c-1-1.2-2.4-1.9-4.4-1.9
			c-2,0-3.7,0.7-4.9,2.1c-1.2,1.4-1.8,3.3-1.8,5.8v14.8h-5.9V22.4c0-2.4-0.5-4.2-1.5-5.5c-1-1.2-2.5-1.8-4.4-1.8
			c-2,0-3.6,0.7-4.8,2.2c-1.2,1.4-1.8,3.4-1.8,5.9v14.6h-5.9V10.5h4.2l1.6,3.6c2-2.5,4.7-3.9,8.2-3.9c2,0,3.7,0.4,5.2,1.2
			c1.5,0.8,2.6,2.1,3.4,3.7c1-1.6,2.3-2.8,3.9-3.6c1.6-0.9,3.5-1.3,5.8-1.3C150.1,10.1,152.6,11.1,154.5,13z"/>
		<path class="st1" d="M226.5,10.5v26.2c0,3.9-1.2,6.8-3.5,8.9c-2.3,2.1-5.9,3.2-10.8,3.2c-3.8,0-6.9-0.8-9.2-2.5
			c-2.4-1.7-3.7-4-3.9-7h6c0.4,1.5,1.2,2.7,2.5,3.5c1.3,0.8,3,1.2,5.1,1.2c5.4,0,8-2.5,8-7.6v-3c-2,3-5.1,4.5-9.1,4.5
			c-2.5,0-4.8-0.6-6.8-1.7c-2-1.1-3.6-2.7-4.7-4.8c-1.1-2.1-1.7-4.5-1.7-7.4c0-2.7,0.6-5.2,1.7-7.2c1.2-2.1,2.7-3.7,4.7-4.9
			c2-1.2,4.3-1.7,6.8-1.7c2.1,0,3.9,0.4,5.5,1.2c1.5,0.8,2.8,1.9,3.7,3.4l1.6-4.3H226.5z M218.4,30.5c1.5-1.7,2.2-3.8,2.2-6.4
			c0-2.7-0.8-4.9-2.2-6.6c-1.5-1.7-3.5-2.5-5.9-2.5c-2.4,0-4.4,0.8-5.9,2.5c-1.5,1.7-2.2,3.9-2.2,6.5c0,2.7,0.8,4.8,2.2,6.5
			c1.5,1.7,3.5,2.5,5.9,2.5C215,33,216.9,32.2,218.4,30.5z"/>
		<path class="st1" d="M261.4,10.5v27.3h-5.1l-0.7-4.2c-1,1.3-2.2,2.4-3.8,3.3c-1.5,0.8-3.3,1.2-5.4,1.2c-2.5,0-4.8-0.6-6.8-1.7
			c-2-1.1-3.6-2.7-4.7-4.8c-1.1-2.1-1.7-4.6-1.7-7.4c0-2.8,0.6-5.2,1.7-7.3c1.2-2.1,2.7-3.7,4.7-4.9c2-1.2,4.3-1.7,6.8-1.7
			c2.1,0,3.9,0.4,5.4,1.1c1.5,0.8,2.8,1.8,3.7,3.2l1.6-4L261.4,10.5L261.4,10.5z M253.3,30.7c1.5-1.7,2.2-3.9,2.2-6.5
			c0-2.7-0.8-4.9-2.2-6.6c-1.5-1.7-3.5-2.5-5.9-2.5c-2.4,0-4.4,0.8-5.9,2.5c-1.5,1.7-2.2,3.9-2.2,6.5s0.8,4.9,2.2,6.6
			c1.5,1.7,3.5,2.5,5.9,2.5C249.9,33.2,251.8,32.4,253.3,30.7z"/>
		<path class="st1" d="M185.5,28.6c0,0.1,0,0.1-0.1,0.2c-0.9,3.1-3.7,4.6-7,4.6c-1.2,0-2.4-0.2-3.4-0.7c-3.3-1.5-4.7-5-4.7-8.7
			c0-3.5,1-6.3,3.7-8.1c1.2-0.8,2.8-1.2,4.3-1.2c4.1,0,7.1,2.3,7.6,6.3h-8.5l-3.7,1.5v2.7h18c0.1-0.7,0.2-1.5,0.2-2.2
			c0-7.8-5.9-13.2-13.8-13c-2.6,0-5,0.6-7.1,1.7c-4.5,2.5-6.6,7.1-6.5,12.3c0,5.2,2.2,9.8,6.8,12.2c2.2,1.2,4.7,1.7,7.6,1.7
			c5.5,0.1,10.2-2.8,12-7.6c0.3-0.7,0.4-1.3,0.5-1.9H185.5z"/>
		<path class="st1" d="M264.2,3.6c0.3-0.5,0.7-0.8,1.1-1.1c0.5-0.2,1-0.4,1.6-0.4c0.6,0,1.1,0.1,1.6,0.4c0.5,0.2,0.8,0.6,1.1,1.1
			c0.3,0.5,0.4,1,0.4,1.5s-0.1,1-0.4,1.5c-0.3,0.5-0.7,0.8-1.1,1.1c-0.5,0.2-1,0.4-1.6,0.4c-0.5,0-1.1-0.1-1.6-0.4
			c-0.5-0.2-0.8-0.6-1.1-1.1c-0.3-0.5-0.4-1-0.4-1.5C263.8,4.5,263.9,4,264.2,3.6z M268.9,3.9c-0.2-0.4-0.5-0.6-0.8-0.8
			c-0.4-0.2-0.8-0.3-1.2-0.3c-0.4,0-0.8,0.1-1.2,0.3c-0.4,0.2-0.6,0.5-0.8,0.8s-0.3,0.7-0.3,1.2s0.1,0.8,0.3,1.1
			c0.2,0.4,0.5,0.6,0.8,0.8c0.4,0.2,0.7,0.3,1.2,0.3c0.4,0,0.8-0.1,1.2-0.3c0.4-0.2,0.7-0.5,0.8-0.8c0.2-0.4,0.3-0.7,0.3-1.1
			C269.2,4.7,269.1,4.3,268.9,3.9z M267,3.5c0.4,0,0.7,0.1,0.9,0.3c0.2,0.2,0.4,0.5,0.4,0.8c0,0.2,0,0.4-0.1,0.5
			c-0.1,0.1-0.3,0.3-0.4,0.4l0.7,1.2h-0.9l-0.5-1h-0.4v1h-0.8V3.5H267z M266.5,5h0.4c0.1,0,0.3,0,0.4-0.1c0.1-0.1,0.1-0.2,0.1-0.3
			c0-0.1,0-0.2-0.1-0.3c-0.1-0.1-0.2-0.1-0.4-0.1h-0.4L266.5,5L266.5,5z"/>
	</g>
</g>
</svg>
