<svg width="74" height="74" viewBox="0 0 74 74" fill="none" xmlns="http://www.w3.org/2000/svg">
<path d="M37 4.11111C30.4952 4.11111 24.1364 6.04001 18.7279 9.65389C13.3193 13.2678 9.1039 18.4043 6.61462 24.414C4.12533 30.4236 3.47402 37.0365 4.74305 43.4163C6.01207 49.7961 9.14444 55.6564 13.744 60.256C18.3436 64.8556 24.2039 67.9879 30.5837 69.2569C36.9635 70.526 43.5764 69.8747 49.586 67.3854C55.5957 64.8961 60.7322 60.6806 64.3461 55.2721C67.96 49.8635 69.8889 43.5048 69.8889 37C69.8889 28.2773 66.4238 19.9119 60.2559 13.744C54.0881 7.57618 45.7227 4.11111 37 4.11111ZM58.4805 25.9617L31.4705 52.9511L15.5194 37C14.9743 36.4548 14.668 35.7154 14.668 34.9444C14.668 34.1735 14.9743 33.4341 15.5194 32.8889C16.0646 32.3437 16.804 32.0375 17.575 32.0375C18.346 32.0375 19.0854 32.3437 19.6305 32.8889L31.5117 44.77L54.4105 21.8917C54.6805 21.6217 55.0009 21.4076 55.3536 21.2615C55.7063 21.1154 56.0843 21.0402 56.4661 21.0402C56.8479 21.0402 57.2259 21.1154 57.5786 21.2615C57.9313 21.4076 58.2517 21.6217 58.5217 21.8917C58.7916 22.1616 59.0057 22.4821 59.1518 22.8348C59.2979 23.1875 59.3731 23.5655 59.3731 23.9472C59.3731 24.329 59.2979 24.707 59.1518 25.0597C59.0057 25.4124 58.7916 25.7328 58.5217 26.0028L58.4805 25.9617Z" fill="#3FE416"/>
</svg>
