<svg width="24" height="24" viewBox="0 0 24 24" fill="none" xmlns="http://www.w3.org/2000/svg">
<g clip-path="url(#clip0)">
<path d="M23.2848 5.15637C22.4624 5.52077 21.579 5.76698 20.6503 5.87827C21.6085 5.30488 22.3255 4.40244 22.6673 3.33933C21.767 3.87409 20.7816 4.25051 19.7541 4.45221C19.0631 3.71442 18.1479 3.22541 17.1505 3.06108C16.1531 2.89676 15.1293 3.06632 14.2382 3.54344C13.347 4.02056 12.6383 4.77855 12.2221 5.69972C11.8059 6.62089 11.7054 7.6537 11.9364 8.63781C10.1121 8.54622 8.3275 8.07207 6.69836 7.24613C5.06922 6.42019 3.63195 5.26093 2.47984 3.84357C2.0859 4.52312 1.85938 5.311 1.85938 6.15009C1.85894 6.90546 2.04496 7.64926 2.40093 8.3155C2.7569 8.98174 3.27181 9.54982 3.89999 9.96933C3.17147 9.94615 2.45903 9.7493 1.82196 9.39516V9.45425C1.82188 10.5137 2.18835 11.5405 2.85918 12.3605C3.53001 13.1805 4.46388 13.7432 5.50234 13.953C4.82652 14.1359 4.11797 14.1629 3.43021 14.0318C3.7232 14.9434 4.29392 15.7406 5.06247 16.3117C5.83102 16.8828 6.75892 17.1993 7.71628 17.2168C6.09111 18.4926 4.08404 19.1846 2.01794 19.1816C1.65195 19.1817 1.28627 19.1603 0.922791 19.1176C3.02 20.466 5.46131 21.1817 7.95461 21.1789C16.3948 21.1789 21.0088 14.1884 21.0088 8.12569C21.0088 7.92872 21.0039 7.72978 20.995 7.53281C21.8925 6.88377 22.6672 6.08006 23.2828 5.15933L23.2848 5.15637Z" fill="#0080FF"/>
</g>
<defs>
<clipPath id="clip0">
<rect width="23.6364" height="23.6364" fill="white" transform="translate(0 0.181824)"/>
</clipPath>
</defs>
</svg>
