<svg width="25" height="25" viewBox="0 0 25 25" fill="none" xmlns="http://www.w3.org/2000/svg">
<g clip-path="url(#clip0)">
<path d="M12.4882 3.00003H12.6263C13.9013 3.00468 20.3618 3.05122 22.1037 3.51966C22.6303 3.66263 23.1102 3.9413 23.4953 4.32782C23.8805 4.71434 24.1574 5.19517 24.2986 5.72228C24.4552 6.31171 24.5654 7.09193 24.6398 7.89697L24.6553 8.05829L24.6894 8.46158L24.7019 8.6229C24.8027 10.0406 24.8151 11.3684 24.8166 11.6585V11.7748C24.8151 12.0757 24.8011 13.4935 24.6894 14.9702L24.677 15.133L24.6631 15.2943C24.5855 16.1816 24.4707 17.0626 24.2986 17.711C24.1579 18.2383 23.881 18.7194 23.4958 19.106C23.1106 19.4926 22.6305 19.7711 22.1037 19.9136C20.3044 20.3976 13.4654 20.4317 12.5177 20.4333H12.2974C11.8181 20.4333 9.83576 20.424 7.75723 20.3526L7.49354 20.3433L7.35859 20.3371L7.09335 20.3262L6.8281 20.3154C5.10634 20.2394 3.46679 20.1168 2.71139 19.9121C2.18476 19.7697 1.7048 19.4914 1.31959 19.1051C0.934379 18.7188 0.657444 18.238 0.516528 17.711C0.344352 17.0642 0.229568 16.1816 0.152011 15.2943L0.139602 15.1315L0.127193 14.9702C0.0506409 13.9191 0.00822082 12.8658 0 11.812L0 11.6212C0.00310227 11.2878 0.0155114 10.1353 0.0992728 8.86333L0.110131 8.70356L0.114784 8.6229L0.127193 8.46158L0.161318 8.05829L0.17683 7.89697C0.251284 7.09193 0.361415 6.31016 0.51808 5.72228C0.658758 5.19496 0.935587 4.7139 1.32081 4.32731C1.70604 3.94072 2.18612 3.6622 2.71294 3.51966C3.46834 3.31801 5.10789 3.19392 6.82965 3.11637L7.09335 3.10551L7.36014 3.0962L7.49354 3.09155L7.75879 3.08069C9.23501 3.03319 10.7118 3.00681 12.1888 3.00158H12.4882V3.00003ZM9.92727 7.97918V15.4526L16.3753 11.7174L9.92727 7.97918Z" fill="#0080FF"/>
</g>
<defs>
<clipPath id="clip0">
<rect width="24.8182" height="24.8182" fill="white" transform="translate(0 0.181824)"/>
</clipPath>
</defs>
</svg>
